<svg id="Layer_1" data-name="Layer 1" xmlns="http://www.w3.org/2000/svg" viewBox="0 0 1366 768"><path d="M132.48,350.48H755.67a48.61,48.61,0,0,0,48.55-48.54V143.09a48.61,48.61,0,0,0-48.55-48.54H132.48a48.6,48.6,0,0,0-48.54,48.54V301.94A48.6,48.6,0,0,0,132.48,350.48ZM101.23,143.09a31.3,31.3,0,0,1,31.25-31.26H755.67a31.26,31.26,0,0,1,31.21,31.26V301.94a31.2,31.2,0,0,1-31.21,31.2H132.48a31.24,31.24,0,0,1-31.25-31.2Z"/><path d="M132.48,321.42H755.67a19.55,19.55,0,0,0,19.48-19.48V143.09a19.51,19.51,0,0,0-19.48-19.48H132.48A19.48,19.48,0,0,0,113,143.09V301.94A19.52,19.52,0,0,0,132.48,321.42ZM664.9,168.67H650.4v-15h17.5q27.3,1,33.72,22.75A47.7,47.7,0,0,1,703.49,190c-.16,14.56-4.44,24.78-13,30.67,7.28,3.85,11.67,11,13.17,21.25.16.85.27,1.76.38,2.62l3.21,40.84H691.82L689,251.84c-1-10.75-3.75-17.66-8.3-20.66-3-2-7.06-2.94-12.2-2.83H650.4V213.47h17.12q20-.41,20.13-22.21C687.43,176.33,679.83,168.83,664.9,168.67Zm-23.87-15V285.35H624.65V153.63Zm-51.48,0V285.35H573.17V153.63ZM496,248.26h20.13l-20.88-94.41h16.33l29.75,131.5H525l-4.71-21.09H492.41Zm-17.5,37.09H462.27l25.05-111.22h3l6.42,29.17ZM282.07,164.18V153.63H296.2l69.63,111.59v20.13H357.7Zm16.38,42.33v78.84H282.07V182.43h1.5Zm65.83,40.09-14.83-24.09V153.63h16.38v93Zm-139.1-71a20.72,20.72,0,0,0-14.67-6.58V152.72c12.63,0,22.8,5.41,30.46,16.33q6.59,9.47,6.58,17.71v61.87q0,21-18.62,32c-6.53,3.74-12.64,5.67-18.42,5.67V269.93c4.39,0,8.84-2,13.33-5.83a20.58,20.58,0,0,0,7.33-15.47V189.76C231.17,184.89,229.19,180.18,225.18,175.63Zm-61.92,11.13c0-6.63,2.83-13.43,8.51-20.34q11.23-13.56,28.58-13.7v16.33c-7.66,0-13.6,3.9-17.88,11.66a20.14,20.14,0,0,0-2.62,9v58.87c0,7.92,3.85,14.08,11.66,18.47,3.27,1.87,6.11,2.83,8.62,2.83v16.38c-7.12,0-14.29-2.57-21.41-7.76q-15.25-11.24-15.46-29.92Z"/><path d="M155.49,399H89.93v263.7h65.56c41.43,0,61.77-23,61.77-65.14V464.21C217.26,422,196.92,399,155.49,399Zm20.34,200.44c0,18.84-7.92,25.58-21.08,25.58H131.36V436.7h23.39c13.16,0,21.08,6.8,21.08,25.64Z"/><rect x="243.64" y="399.02" width="41.42" height="263.7"/><path d="M346.51,399l-42.23,263.7h38.05l7.18-47.85h50.84l7.17,47.85h41.8L407.15,399Zm8.24,180.1,20-133.37,20,133.37Z"/><polygon points="510.01 399.02 468.54 399.02 468.54 662.72 578.2 662.72 578.2 625.04 510.01 625.04 510.01 399.02"/><path d="M655.8,396c-40.67,0-62.94,24.08-62.94,66.31V599.46c0,42.17,22.27,66.31,62.94,66.31s62.89-24.14,62.89-66.31V462.34C718.69,420.11,696.48,396,655.8,396Zm21.47,206.05c0,18.84-8.3,26-21.47,26s-21.46-7.17-21.46-26V459.66c0-18.84,8.3-26,21.46-26s21.47,7.11,21.47,26Z"/><path d="M803.84,396c-40.67,0-61.76,24.08-61.76,66.31V599.46c0,42.17,21.09,66.31,61.76,66.31s61.82-24.14,61.82-66.31V515.81h-58v37.67h18.84v48.6c0,18.84-8.3,25.64-21.51,25.64s-21.47-6.8-21.47-25.64V459.66c0-18.84,8.3-26,21.47-26s21.51,7.11,21.51,26v28.26h39.18V462.34C865.66,420.11,844.57,396,803.84,396Z"/><path d="M974.89,602.46c0,18.83-8.29,25.63-21.46,25.63S932,621.29,932,602.46V399H890.54V599.83c0,42.18,21.09,66.26,61.77,66.26s61.76-24.08,61.76-66.26V399H974.89Z"/><polygon points="1042.38 662.72 1155.36 662.72 1155.36 625.04 1083.81 625.04 1083.81 547.81 1140.7 547.81 1140.7 510.19 1083.81 510.19 1083.81 436.7 1155.36 436.7 1155.36 399.02 1042.38 399.02 1042.38 662.72"/><path d="M1217.18,459.66c0-18.84,7.55-26,20.71-26s20.71,7.11,20.71,26v10.92h39.18v-8.24c0-42.23-20.71-66.31-61-66.31s-61,24.08-61,66.31c0,75.3,81,85.47,81,139.74,0,18.84-8.29,25.64-21.46,25.64s-21.52-6.8-21.52-25.64V583.24h-39.17v16.22c0,42.17,21.14,66.31,61.81,66.31s61.77-24.14,61.77-66.31C1298.16,524.1,1217.18,513.93,1217.18,459.66Z"/></svg>